<svg xmlns="http://www.w3.org/2000/svg" xmlns:xlink="http://www.w3.org/1999/xlink" width="1024" zoomAndPan="magnify" viewBox="0 0 768 767.999994" height="1024" preserveAspectRatio="xMidYMid meet" version="1.0"><defs><clipPath id="f5f4ba503e"><path d="M 172.171875 275 L 275 275 L 275 320 L 172.171875 320 Z M 172.171875 275 " clip-rule="nonzero"/></clipPath><clipPath id="f0bedec8f6"><path d="M 172.171875 264 L 221 264 L 221 301 L 172.171875 301 Z M 172.171875 264 " clip-rule="nonzero"/></clipPath><clipPath id="c180fb2f56"><path d="M 295 411 L 662.671875 411 L 662.671875 425 L 295 425 Z M 295 411 " clip-rule="nonzero"/></clipPath><clipPath id="1d36889739"><path d="M 649 422 L 662.671875 422 L 662.671875 628.734375 L 649 628.734375 Z M 649 422 " clip-rule="nonzero"/></clipPath><clipPath id="b123f50871"><path d="M 295 422 L 309 422 L 309 628.734375 L 295 628.734375 Z M 295 422 " clip-rule="nonzero"/></clipPath><clipPath id="304fc6c3a0"><path d="M 552 411 L 662.671875 411 L 662.671875 606 L 552 606 Z M 552 411 " clip-rule="nonzero"/></clipPath><clipPath id="e1be178108"><path d="M 236 618 L 300 618 L 300 628.734375 L 236 628.734375 Z M 236 618 " clip-rule="nonzero"/></clipPath><clipPath id="0f1a4ae15f"><path d="M 368 617 L 437 617 L 437 628.734375 L 368 628.734375 Z M 368 617 " clip-rule="nonzero"/></clipPath><clipPath id="cb4a6f63da"><path d="M 260 621 L 364 621 L 364 628.734375 L 260 628.734375 Z M 260 621 " clip-rule="nonzero"/></clipPath><clipPath id="c555a82e77"><path d="M 517 139 L 662.671875 139 L 662.671875 241 L 517 241 Z M 517 139 " clip-rule="nonzero"/></clipPath></defs><path fill="#ffffff" d="M 426.914062 567.917969 C 426.882812 556.582031 436.058594 547.363281 447.410156 547.332031 C 458.765625 547.292969 467.996094 556.460938 468.027344 567.800781 C 468.058594 579.140625 458.882812 588.359375 447.53125 588.390625 C 436.179688 588.421875 426.945312 579.257812 426.914062 567.917969 Z M 439.449219 612.378906 L 455.753906 612.328125 L 455.722656 602.179688 C 459.449219 601.289062 462.945312 599.808594 466.105469 597.847656 L 473.316406 605 L 484.808594 593.457031 L 477.601562 586.296875 C 479.550781 583.128906 481.011719 579.628906 481.878906 575.902344 L 492.042969 575.875 L 491.992188 559.589844 L 481.835938 559.617188 C 480.945312 555.898438 479.460938 552.40625 477.492188 549.246094 L 484.660156 542.046875 L 473.097656 530.570312 L 465.933594 537.769531 C 462.757812 535.820312 459.253906 534.363281 455.523438 533.492188 L 455.050781 523.03125 L 439.191406 523.394531 L 439.222656 533.539062 C 435.496094 534.433594 432 535.910156 428.835938 537.875 L 421.628906 530.71875 L 410.132812 542.265625 L 417.34375 549.421875 C 415.394531 552.589844 413.933594 556.089844 413.0625 559.820312 L 402.902344 559.847656 L 402.945312 576.128906 L 413.109375 576.101562 C 414 579.824219 415.484375 583.316406 417.449219 586.472656 L 410.285156 593.671875 L 421.84375 605.152344 L 429.011719 597.953125 C 432.183594 599.898438 435.691406 601.359375 439.421875 602.226562 L 439.449219 612.378906 " fill-opacity="1" fill-rule="nonzero"/><path fill="#000000" d="M 427.503906 567.917969 C 427.535156 578.894531 436.488281 587.800781 447.472656 587.800781 C 447.492188 587.800781 447.511719 587.800781 447.53125 587.800781 C 452.863281 587.785156 457.871094 585.695312 461.628906 581.921875 C 465.390625 578.144531 467.453125 573.128906 467.4375 567.800781 C 467.40625 556.828125 458.453125 547.917969 447.472656 547.917969 C 447.453125 547.917969 447.433594 547.917969 447.414062 547.917969 C 436.40625 547.953125 427.472656 556.921875 427.503906 567.917969 Z M 447.472656 588.980469 C 435.839844 588.980469 426.359375 579.546875 426.324219 567.921875 C 426.292969 556.277344 435.75 546.773438 447.410156 546.738281 C 447.429688 546.738281 447.453125 546.738281 447.472656 546.738281 C 459.101562 546.738281 468.585938 556.175781 468.617188 567.800781 C 468.632812 573.441406 466.449219 578.75 462.46875 582.75 C 458.484375 586.75 453.179688 588.964844 447.535156 588.980469 C 447.515625 588.980469 447.492188 588.980469 447.472656 588.980469 Z M 429.011719 597.359375 C 429.117188 597.359375 429.222656 597.390625 429.320312 597.449219 C 432.492188 599.398438 435.9375 600.8125 439.554688 601.652344 C 439.820312 601.714844 440.011719 601.949219 440.011719 602.226562 L 440.039062 611.785156 L 455.160156 611.738281 L 455.132812 602.179688 C 455.132812 601.910156 455.316406 601.667969 455.585938 601.605469 C 459.199219 600.742188 462.632812 599.308594 465.796875 597.34375 C 466.027344 597.199219 466.328125 597.234375 466.523438 597.425781 L 473.3125 604.167969 L 483.972656 593.460938 L 477.1875 586.714844 C 476.988281 586.523438 476.957031 586.222656 477.101562 585.992188 C 479.050781 582.820312 480.464844 579.382812 481.308594 575.769531 C 481.371094 575.5 481.605469 575.3125 481.878906 575.3125 L 491.449219 575.285156 L 491.40625 560.179688 L 481.835938 560.210938 C 481.5625 560.210938 481.324219 560.023438 481.257812 559.757812 C 480.394531 556.148438 478.960938 552.71875 476.992188 549.558594 C 476.847656 549.324219 476.882812 549.023438 477.074219 548.832031 L 483.824219 542.050781 L 473.101562 531.402344 L 466.351562 538.183594 C 466.15625 538.378906 465.855469 538.414062 465.625 538.273438 C 462.449219 536.324219 459.003906 534.910156 455.386719 534.066406 C 455.132812 534.007812 454.945312 533.785156 454.933594 533.519531 L 454.488281 523.632812 L 439.78125 523.96875 L 439.8125 533.539062 C 439.8125 533.8125 439.625 534.050781 439.355469 534.113281 C 435.746094 534.976562 432.308594 536.410156 429.148438 538.375 C 428.914062 538.519531 428.613281 538.484375 428.417969 538.292969 L 421.628906 531.550781 L 410.96875 542.261719 L 417.757812 549.003906 C 417.949219 549.199219 417.988281 549.496094 417.84375 549.730469 C 415.894531 552.902344 414.480469 556.339844 413.636719 559.953125 C 413.574219 560.21875 413.339844 560.40625 413.0625 560.40625 L 403.492188 560.4375 L 403.535156 575.539062 L 413.109375 575.511719 C 413.382812 575.511719 413.621094 575.699219 413.683594 575.964844 C 414.546875 579.570312 415.984375 583.003906 417.949219 586.164062 C 418.09375 586.394531 418.058594 586.695312 417.867188 586.890625 L 411.121094 593.671875 L 421.84375 604.320312 L 428.589844 597.535156 C 428.707031 597.421875 428.859375 597.359375 429.011719 597.359375 Z M 439.449219 612.964844 C 439.125 612.964844 438.863281 612.703125 438.859375 612.378906 L 438.832031 602.691406 C 435.410156 601.851562 432.140625 600.503906 429.101562 598.695312 L 422.261719 605.570312 C 422.03125 605.800781 421.660156 605.800781 421.425781 605.570312 L 409.867188 594.089844 C 409.757812 593.980469 409.695312 593.832031 409.691406 593.675781 C 409.691406 593.519531 409.753906 593.367188 409.863281 593.257812 L 416.707031 586.386719 C 414.875 583.363281 413.511719 580.105469 412.648438 576.691406 L 402.949219 576.722656 C 402.765625 576.707031 402.640625 576.660156 402.53125 576.550781 C 402.417969 576.4375 402.359375 576.289062 402.359375 576.132812 L 402.308594 559.851562 C 402.308594 559.695312 402.371094 559.542969 402.480469 559.433594 C 402.59375 559.320312 402.742188 559.257812 402.898438 559.257812 L 412.597656 559.230469 C 413.441406 555.808594 414.785156 552.546875 416.597656 549.515625 L 409.714844 542.683594 C 409.605469 542.570312 409.542969 542.421875 409.542969 542.265625 C 409.542969 542.109375 409.605469 541.960938 409.714844 541.851562 L 421.207031 530.300781 C 421.4375 530.070312 421.8125 530.070312 422.042969 530.300781 L 428.921875 537.132812 C 431.949219 535.304688 435.210938 533.941406 438.628906 533.078125 L 438.601562 523.394531 C 438.601562 523.070312 438.855469 522.808594 439.179688 522.800781 L 455.039062 522.441406 C 455.042969 522.441406 455.046875 522.441406 455.050781 522.441406 C 455.367188 522.441406 455.625 522.6875 455.640625 523.003906 L 456.09375 533.023438 C 459.523438 533.867188 462.796875 535.210938 465.839844 537.023438 L 472.679688 530.152344 C 472.910156 529.921875 473.285156 529.917969 473.515625 530.152344 L 485.078125 541.628906 C 485.1875 541.738281 485.25 541.890625 485.25 542.046875 C 485.25 542.203125 485.191406 542.351562 485.078125 542.464844 L 478.242188 549.335938 C 480.070312 552.359375 481.429688 555.613281 482.296875 559.03125 L 491.992188 559 C 492.320312 559 492.582031 559.261719 492.585938 559.589844 L 492.632812 575.871094 C 492.632812 576.027344 492.570312 576.179688 492.460938 576.289062 C 492.351562 576.398438 492.199219 576.460938 492.046875 576.460938 L 482.347656 576.488281 C 481.5 579.90625 480.15625 583.171875 478.347656 586.207031 L 485.222656 593.039062 C 485.335938 593.148438 485.398438 593.300781 485.398438 593.453125 C 485.402344 593.613281 485.339844 593.761719 485.226562 593.871094 L 473.734375 605.417969 C 473.503906 605.648438 473.132812 605.648438 472.902344 605.421875 L 466.019531 598.589844 C 462.992188 600.417969 459.734375 601.777344 456.316406 602.640625 L 456.339844 612.324219 C 456.34375 612.652344 456.078125 612.917969 455.753906 612.917969 L 439.449219 612.964844 " fill-opacity="1" fill-rule="nonzero"/><path fill="#4ada85" d="M 520.097656 515.679688 C 516.445312 507.09375 520.453125 497.175781 529.046875 493.527344 C 537.644531 489.875 547.574219 493.878906 551.226562 502.460938 C 554.882812 511.046875 550.878906 520.964844 542.28125 524.617188 C 533.6875 528.265625 523.753906 524.265625 520.097656 515.679688 Z M 543.832031 545.375 L 556.175781 540.136719 L 552.902344 532.453125 C 555.445312 530.589844 557.621094 528.351562 559.390625 525.851562 L 567.144531 528.972656 L 572.160156 516.550781 L 564.40625 513.429688 C 564.867188 510.402344 564.859375 507.28125 564.324219 504.179688 L 572.015625 500.914062 L 566.765625 488.585938 L 559.074219 491.851562 C 557.207031 489.316406 554.96875 487.140625 552.464844 485.375 L 555.59375 477.632812 L 543.15625 472.621094 L 540.027344 480.367188 C 536.996094 479.902344 533.875 479.917969 530.769531 480.449219 L 527.058594 472.667969 L 515.15625 478.007812 L 518.421875 485.6875 C 515.882812 487.554688 513.707031 489.792969 511.941406 492.289062 L 504.183594 489.167969 L 499.167969 501.589844 L 506.925781 504.714844 C 506.460938 507.738281 506.472656 510.859375 507.007812 513.960938 L 499.316406 517.230469 L 504.558594 529.558594 L 512.253906 526.289062 C 514.121094 528.828125 516.363281 531 518.863281 532.765625 L 515.738281 540.515625 L 528.175781 545.523438 L 531.300781 537.777344 C 534.332031 538.238281 537.457031 538.226562 540.5625 537.691406 L 543.832031 545.375 " fill-opacity="1" fill-rule="nonzero"/><g clip-path="url(#f5f4ba503e)"><path fill="#4ada85" d="M 173.140625 313.730469 C 175.105469 304.582031 184.691406 296.148438 191.136719 297.507812 C 196.363281 298.609375 196.296875 305.484375 200.746094 305.84375 C 206.726562 306.332031 210.027344 294.195312 216.03125 294.578125 C 221.242188 294.910156 222.207031 304.28125 226.875 304.492188 C 233.359375 304.789062 236.429688 286.945312 244.128906 286.691406 C 249.890625 286.5 252.058594 296.355469 257.929688 296.605469 C 261.902344 296.777344 267.277344 292.539062 274.199219 275.648438 C 274.199219 290.300781 274.199219 304.953125 274.199219 319.605469 C 240.429688 319.605469 206.660156 319.605469 172.890625 319.605469 C 172.71875 318.183594 172.628906 316.121094 173.140625 313.730469 " fill-opacity="1" fill-rule="nonzero"/></g><g clip-path="url(#f0bedec8f6)"><path fill="#000000" d="M 172.757812 300.0625 C 172.429688 300.0625 172.167969 299.796875 172.167969 299.472656 L 172.167969 265.121094 C 172.167969 264.792969 172.429688 264.527344 172.757812 264.527344 L 219.4375 264.527344 C 219.761719 264.527344 220.027344 264.792969 220.027344 265.121094 C 220.027344 265.445312 219.761719 265.710938 219.4375 265.710938 L 173.347656 265.710938 L 173.347656 299.472656 C 173.347656 299.796875 173.082031 300.0625 172.757812 300.0625 " fill-opacity="1" fill-rule="nonzero"/></g><path fill="#000000" d="M 274.199219 320.195312 L 226.875 320.195312 C 226.546875 320.195312 226.285156 319.933594 226.285156 319.605469 C 226.285156 319.28125 226.546875 319.019531 226.875 319.019531 L 273.609375 319.019531 L 273.609375 275.648438 C 273.609375 275.324219 273.871094 275.058594 274.199219 275.058594 C 274.523438 275.058594 274.789062 275.324219 274.789062 275.648438 L 274.789062 319.605469 C 274.789062 319.933594 274.523438 320.195312 274.199219 320.195312 " fill-opacity="1" fill-rule="nonzero"/><path fill="#8c7bff" d="M 455.453125 345.496094 L 513.070312 345.496094 L 513.070312 407.382812 L 508.136719 407.382812 L 507.449219 406.800781 L 455.453125 406.800781 L 455.453125 345.496094 " fill-opacity="1" fill-rule="nonzero"/><path fill="#ffffff" d="M 450.953125 406.574219 L 450.953125 345.644531 L 508.28125 345.644531 L 508.28125 406.574219 L 450.953125 406.574219 " fill-opacity="1" fill-rule="nonzero"/><path fill="#000000" d="M 451.6875 406.167969 L 507.542969 406.167969 L 507.542969 346.378906 L 451.6875 346.378906 Z M 508.136719 407.347656 L 451.101562 407.347656 C 450.773438 407.347656 450.507812 407.082031 450.507812 406.757812 L 450.507812 345.789062 C 450.507812 345.464844 450.773438 345.199219 451.101562 345.199219 L 508.136719 345.199219 C 508.460938 345.199219 508.722656 345.464844 508.722656 345.789062 L 508.722656 406.757812 C 508.722656 407.082031 508.460938 407.347656 508.136719 407.347656 " fill-opacity="1" fill-rule="nonzero"/><path fill="#8c7bff" d="M 445.554688 412.039062 L 513.070312 412.039062 L 513.070312 407.101562 L 445.554688 407.101562 L 445.554688 412.039062 " fill-opacity="1" fill-rule="nonzero"/><path fill="#ffffff" d="M 423.226562 412.039062 L 423.226562 406.613281 L 490.449219 406.613281 L 490.449219 412.039062 L 423.226562 412.039062 " fill-opacity="1" fill-rule="nonzero"/><path fill="#000000" d="M 423.960938 411.449219 L 489.714844 411.449219 L 489.714844 407.347656 L 423.960938 407.347656 Z M 490.304688 412.628906 L 423.371094 412.628906 C 423.042969 412.628906 422.78125 412.363281 422.78125 412.039062 L 422.78125 406.757812 C 422.78125 406.433594 423.042969 406.167969 423.371094 406.167969 L 490.304688 406.167969 C 490.628906 406.167969 490.894531 406.433594 490.894531 406.757812 L 490.894531 412.039062 C 490.894531 412.363281 490.628906 412.628906 490.304688 412.628906 " fill-opacity="1" fill-rule="nonzero"/><path fill="#8c7bff" d="M 581.625 208.734375 L 571.222656 208.734375 L 571.222656 358.039062 L 581.625 358.039062 C 586.972656 358.039062 591.316406 353.707031 591.316406 348.359375 L 591.316406 218.417969 C 591.316406 213.066406 586.972656 208.734375 581.625 208.734375 " fill-opacity="1" fill-rule="nonzero"/><path fill="#ffffff" d="M 362.613281 348.066406 L 362.613281 218.984375 C 362.613281 213.671875 366.921875 209.367188 372.238281 209.367188 L 575.414062 209.367188 C 580.734375 209.367188 585.039062 213.671875 585.039062 218.984375 L 585.039062 348.066406 C 585.039062 353.378906 580.734375 357.683594 575.414062 357.683594 L 372.238281 357.683594 C 366.921875 357.683594 362.613281 353.378906 362.613281 348.066406 " fill-opacity="1" fill-rule="nonzero"/><path fill="#000000" d="M 372.238281 209.828125 C 367.253906 209.828125 363.203125 213.875 363.203125 218.855469 L 363.203125 347.941406 C 363.203125 352.917969 367.253906 356.964844 372.238281 356.964844 L 575.414062 356.964844 C 580.398438 356.964844 584.449219 352.917969 584.449219 347.941406 L 584.449219 218.855469 C 584.449219 213.875 580.398438 209.828125 575.414062 209.828125 Z M 575.414062 358.144531 L 372.238281 358.144531 C 366.605469 358.144531 362.023438 353.566406 362.023438 347.941406 L 362.023438 218.855469 C 362.023438 213.226562 366.605469 208.648438 372.238281 208.648438 L 575.414062 208.648438 C 581.046875 208.648438 585.632812 213.226562 585.632812 218.855469 L 585.632812 347.941406 C 585.632812 353.566406 581.046875 358.144531 575.414062 358.144531 " fill-opacity="1" fill-rule="nonzero"/><path fill="#8c7bff" d="M 449.527344 344.9375 L 449.527344 221.613281 L 572.753906 221.613281 L 572.753906 344.9375 L 449.527344 344.9375 " fill-opacity="1" fill-rule="nonzero"/><path fill="#ffffff" d="M 504.695312 267.066406 L 547.636719 267.066406 L 547.636719 263.808594 L 504.695312 263.808594 L 504.695312 267.066406 " fill-opacity="1" fill-rule="nonzero"/><path fill="#ffffff" d="M 527.75 248.269531 L 547.632812 248.269531 L 547.632812 245.011719 L 527.75 245.011719 L 527.75 248.269531 " fill-opacity="1" fill-rule="nonzero"/><path fill="#ffffff" d="M 511.734375 248.269531 L 523.640625 248.269531 L 523.640625 245.011719 L 511.734375 245.011719 L 511.734375 248.269531 " fill-opacity="1" fill-rule="nonzero"/><path fill="#fed101" d="M 524.582031 304.660156 L 541.101562 304.660156 L 541.101562 301.40625 L 524.582031 301.40625 L 524.582031 304.660156 " fill-opacity="1" fill-rule="nonzero"/><path fill="#fed101" d="M 538.101562 332.859375 L 558.855469 332.859375 L 558.855469 329.601562 L 538.101562 329.601562 L 538.101562 332.859375 " fill-opacity="1" fill-rule="nonzero"/><path fill="#ffffff" d="M 488.984375 332.859375 L 534.609375 332.859375 L 534.609375 329.601562 L 488.984375 329.601562 L 488.984375 332.859375 " fill-opacity="1" fill-rule="nonzero"/><path fill="#fed101" d="M 458.671875 295.261719 L 499.265625 295.261719 L 499.265625 292.007812 L 458.671875 292.007812 L 458.671875 295.261719 " fill-opacity="1" fill-rule="nonzero"/><path fill="#ffffff" d="M 511.730469 295.265625 L 533.664062 295.265625 L 533.664062 292.007812 L 511.730469 292.007812 L 511.730469 295.265625 " fill-opacity="1" fill-rule="nonzero"/><path fill="#fed101" d="M 502.761719 295.261719 L 508.652344 295.261719 L 508.652344 292.007812 L 502.761719 292.007812 L 502.761719 295.261719 " fill-opacity="1" fill-rule="nonzero"/><path fill="#fed101" d="M 532.058594 314.058594 L 549.085938 314.058594 L 549.085938 310.800781 L 532.058594 310.800781 L 532.058594 314.058594 " fill-opacity="1" fill-rule="nonzero"/><path fill="#ffffff" d="M 482.136719 314.058594 L 501.441406 314.058594 L 501.441406 310.804688 L 482.136719 310.804688 L 482.136719 314.058594 " fill-opacity="1" fill-rule="nonzero"/><path fill="#ffffff" d="M 503.167969 314.0625 L 528.832031 314.0625 L 528.832031 310.808594 L 503.167969 310.808594 L 503.167969 314.0625 " fill-opacity="1" fill-rule="nonzero"/><path fill="#ffffff" d="M 473.203125 314.058594 L 479.097656 314.058594 L 479.097656 310.804688 L 473.203125 310.804688 L 473.203125 314.058594 " fill-opacity="1" fill-rule="nonzero"/><path fill="#ffffff" d="M 525.808594 285.832031 L 541.527344 285.832031 L 541.527344 282.574219 L 525.808594 282.574219 L 525.808594 285.832031 " fill-opacity="1" fill-rule="nonzero"/><path fill="#fed101" d="M 503.773438 285.832031 L 523.039062 285.832031 L 523.039062 282.578125 L 503.773438 282.578125 L 503.773438 285.832031 " fill-opacity="1" fill-rule="nonzero"/><path fill="#ffffff" d="M 485.371094 285.832031 L 500.320312 285.832031 L 500.320312 282.578125 L 485.371094 282.578125 L 485.371094 285.832031 " fill-opacity="1" fill-rule="nonzero"/><path fill="#ffffff" d="M 475.25 285.894531 L 481.140625 285.894531 L 481.140625 282.640625 L 475.25 282.640625 L 475.25 285.894531 " fill-opacity="1" fill-rule="nonzero"/><path fill="#fed101" d="M 494.929688 276.464844 L 533.144531 276.464844 L 533.144531 273.210938 L 494.929688 273.210938 L 494.929688 276.464844 " fill-opacity="1" fill-rule="nonzero"/><path fill="#fed101" d="M 518.015625 238.789062 L 555.90625 238.789062 L 555.90625 235.535156 L 518.015625 235.535156 L 518.015625 238.789062 " fill-opacity="1" fill-rule="nonzero"/><path fill="#ffffff" d="M 475.210938 238.949219 L 511.140625 238.949219 L 511.140625 235.695312 L 475.210938 235.695312 L 475.210938 238.949219 " fill-opacity="1" fill-rule="nonzero"/><path fill="#ffffff" d="M 458.671875 238.949219 L 470.414062 238.949219 L 470.414062 235.695312 L 458.671875 235.695312 L 458.671875 238.949219 " fill-opacity="1" fill-rule="nonzero"/><path fill="#ffffff" d="M 460.382812 323.457031 L 497.808594 323.457031 L 497.808594 320.203125 L 460.382812 320.203125 L 460.382812 323.457031 " fill-opacity="1" fill-rule="nonzero"/><path fill="#ffffff" d="M 517.003906 323.457031 L 540.683594 323.457031 L 540.683594 320.203125 L 517.003906 320.203125 L 517.003906 323.457031 " fill-opacity="1" fill-rule="nonzero"/><path fill="#ffffff" d="M 474.03125 257.695312 L 481.523438 257.695312 L 481.523438 254.441406 L 474.03125 254.441406 L 474.03125 257.695312 " fill-opacity="1" fill-rule="nonzero"/><path fill="#fed101" d="M 532.648438 257.640625 L 551.460938 257.640625 L 551.460938 254.382812 L 532.648438 254.382812 L 532.648438 257.640625 " fill-opacity="1" fill-rule="nonzero"/><path fill="#fed101" d="M 485.371094 257.695312 L 527.746094 257.695312 L 527.746094 254.441406 L 485.371094 254.441406 L 485.371094 257.695312 " fill-opacity="1" fill-rule="nonzero"/><path fill="#fda4ff" d="M 376.839844 278.453125 L 439.976562 278.453125 L 439.976562 221.613281 L 376.839844 221.613281 L 376.839844 278.453125 " fill-opacity="1" fill-rule="nonzero"/><path fill="#ffffff" d="M 421.808594 250.035156 C 421.808594 257.398438 415.820312 263.363281 408.429688 263.363281 C 401.039062 263.363281 395.046875 257.398438 395.046875 250.035156 C 395.046875 242.671875 401.039062 236.703125 408.429688 236.703125 C 415.820312 236.703125 421.808594 242.671875 421.808594 250.035156 " fill-opacity="1" fill-rule="nonzero"/><path fill="#000000" d="M 405.496094 245.921875 L 405.496094 254.144531 L 412.644531 250.03125 Z M 404.90625 255.753906 C 404.804688 255.753906 404.703125 255.726562 404.613281 255.675781 C 404.429688 255.570312 404.320312 255.375 404.320312 255.164062 L 404.320312 244.902344 C 404.320312 244.691406 404.429688 244.496094 404.613281 244.390625 C 404.792969 244.285156 405.019531 244.285156 405.199219 244.390625 L 414.125 249.519531 C 414.304688 249.625 414.421875 249.824219 414.421875 250.03125 C 414.421875 250.246094 414.304688 250.441406 414.125 250.542969 L 405.199219 255.675781 C 405.109375 255.726562 405.007812 255.753906 404.90625 255.753906 " fill-opacity="1" fill-rule="nonzero"/><g clip-path="url(#c180fb2f56)"><path fill="#000000" d="M 296.578125 423.171875 L 661.496094 423.171875 L 661.496094 413.066406 L 296.578125 413.066406 Z M 662.085938 424.351562 L 295.988281 424.351562 C 295.660156 424.351562 295.394531 424.085938 295.394531 423.765625 L 295.394531 412.476562 C 295.394531 412.148438 295.660156 411.886719 295.988281 411.886719 L 662.085938 411.886719 C 662.414062 411.886719 662.675781 412.148438 662.675781 412.476562 L 662.675781 423.765625 C 662.675781 424.085938 662.414062 424.351562 662.085938 424.351562 " fill-opacity="1" fill-rule="nonzero"/></g><g clip-path="url(#1d36889739)"><path fill="#000000" d="M 650.566406 627.363281 L 661.496094 627.363281 L 661.496094 423.464844 L 650.566406 423.464844 Z M 662.085938 628.542969 L 649.976562 628.542969 C 649.652344 628.542969 649.390625 628.28125 649.390625 627.953125 L 649.390625 422.875 C 649.390625 422.546875 649.652344 422.285156 649.976562 422.285156 L 662.085938 422.285156 C 662.414062 422.285156 662.675781 422.546875 662.675781 422.875 L 662.675781 627.953125 C 662.675781 628.28125 662.414062 628.542969 662.085938 628.542969 " fill-opacity="1" fill-rule="nonzero"/></g><g clip-path="url(#b123f50871)"><path fill="#000000" d="M 296.570312 627.363281 L 307.5 627.363281 L 307.5 423.464844 L 296.570312 423.464844 Z M 308.089844 628.542969 L 295.980469 628.542969 C 295.65625 628.542969 295.390625 628.28125 295.390625 627.953125 L 295.390625 422.875 C 295.390625 422.546875 295.65625 422.285156 295.980469 422.285156 L 308.089844 422.285156 C 308.414062 422.285156 308.679688 422.546875 308.679688 422.875 L 308.679688 627.953125 C 308.679688 628.28125 308.414062 628.542969 308.089844 628.542969 " fill-opacity="1" fill-rule="nonzero"/></g><g clip-path="url(#304fc6c3a0)"><path fill="#000000" d="M 553.4375 448.546875 L 661.445312 602.929688 L 661.445312 413.082031 L 570.03125 413.082031 Z M 662.039062 605.390625 C 661.847656 605.390625 661.667969 605.300781 661.554688 605.140625 L 552.28125 448.941406 C 552.160156 448.769531 552.140625 448.546875 552.230469 448.351562 L 569.117188 412.246094 C 569.214844 412.035156 569.425781 411.90625 569.65625 411.90625 L 662.039062 411.90625 C 662.363281 411.90625 662.628906 412.167969 662.628906 412.496094 L 662.628906 604.804688 C 662.628906 605.0625 662.460938 605.289062 662.214844 605.363281 C 662.160156 605.382812 662.097656 605.390625 662.039062 605.390625 " fill-opacity="1" fill-rule="nonzero"/></g><path fill="#fed101" d="M 576.113281 466.78125 C 576.113281 463.882812 578.464844 461.53125 581.367188 461.53125 C 584.273438 461.53125 586.625 463.882812 586.625 466.78125 C 586.625 469.679688 584.273438 472.03125 581.367188 472.03125 C 578.464844 472.03125 576.113281 469.679688 576.113281 466.78125 " fill-opacity="1" fill-rule="nonzero"/><path fill="#fda4ff" d="M 612.21875 449.65625 C 609.863281 453.4375 601.734375 457.140625 601.734375 457.140625 C 601.734375 457.140625 601.46875 448.21875 603.824219 444.441406 C 606.179688 440.664062 614.042969 437.390625 614.042969 437.390625 C 614.042969 437.390625 614.570312 445.878906 612.21875 449.65625 " fill-opacity="1" fill-rule="nonzero"/><path fill="#4ada85" d="M 628.835938 487.550781 C 634.941406 491.34375 640.929688 504.453125 640.929688 504.453125 C 640.929688 504.453125 626.511719 504.875 620.40625 501.078125 C 614.296875 497.28125 609.003906 484.605469 609.003906 484.605469 C 609.003906 484.605469 622.730469 483.753906 628.835938 487.550781 " fill-opacity="1" fill-rule="nonzero"/><path fill="#fed101" d="M 296.070312 619.097656 L 241.984375 619.097656 L 265.769531 573.425781 L 303.996094 573.425781 L 296.070312 619.097656 " fill-opacity="1" fill-rule="nonzero"/><path fill="#000000" d="M 302.015625 584.84375 L 253.875 596.257812 L 265.769531 573.425781 L 303.996094 573.425781 L 302.015625 584.84375 " fill-opacity="1" fill-rule="nonzero"/><g clip-path="url(#e1be178108)"><path fill="#000000" d="M 299.855469 628.644531 L 289.59375 628.644531 L 285.210938 624.128906 L 280.816406 628.644531 L 260.171875 628.644531 L 255.535156 624.128906 L 250.726562 628.644531 L 236.324219 628.644531 L 238.277344 618.078125 L 297.898438 618.078125 L 299.855469 628.644531 " fill-opacity="1" fill-rule="nonzero"/></g><path fill="#fed101" d="M 432.730469 623.746094 C 432.925781 622.453125 433.027344 621.128906 433.027344 619.785156 C 433.027344 605.015625 421.039062 593.039062 406.246094 593.039062 C 391.457031 593.039062 379.464844 605.015625 379.464844 619.785156 C 379.464844 621.128906 379.566406 622.453125 379.761719 623.746094 L 432.730469 623.746094 " fill-opacity="1" fill-rule="nonzero"/><path fill="#fed101" d="M 428.105469 617.691406 L 371.378906 617.691406 L 378.316406 581.828125 L 407.289062 581.828125 L 428.105469 617.691406 " fill-opacity="1" fill-rule="nonzero"/><path fill="#000000" d="M 409.042969 584.84375 L 375.839844 594.644531 L 378.316406 581.828125 L 407.289062 581.828125 L 409.042969 584.84375 " fill-opacity="1" fill-rule="nonzero"/><path fill="#000000" d="M 419.988281 604.292969 C 419.785156 604.292969 419.585938 604.191406 419.480469 604.003906 L 414.050781 594.652344 C 413.886719 594.371094 413.984375 594.011719 414.265625 593.847656 C 414.546875 593.683594 414.910156 593.78125 415.074219 594.0625 L 420.5 603.410156 C 420.660156 603.691406 420.566406 604.054688 420.285156 604.21875 C 420.191406 604.269531 420.089844 604.292969 419.988281 604.292969 " fill-opacity="1" fill-rule="nonzero"/><g clip-path="url(#0f1a4ae15f)"><path fill="#000000" d="M 436.164062 628.257812 L 425.230469 628.257812 L 420.570312 623.746094 L 415.886719 628.257812 L 393.894531 628.257812 L 388.957031 623.746094 L 383.835938 628.257812 L 368.492188 628.257812 L 370.574219 617.691406 L 434.082031 617.691406 L 436.164062 628.257812 " fill-opacity="1" fill-rule="nonzero"/></g><path fill="#8c7bff" d="M 425.21875 454.617188 C 413.910156 435.277344 358.535156 426.160156 358.535156 426.160156 L 307.808594 422.582031 L 263.335938 422.582031 L 264.34375 449.730469 C 264.34375 458.054688 267.738281 466.019531 273.746094 471.789062 C 279.460938 477.28125 299.800781 484.859375 307.730469 484.859375 L 406.683594 490.050781 L 433.390625 490.050781 C 433.09375 483.203125 432.617188 467.269531 425.21875 454.617188 " fill-opacity="1" fill-rule="nonzero"/><path fill="#000000" d="M 264.34375 449.730469 L 263.335938 422.582031 L 367.3125 427.804688 Z M 264.34375 449.730469 " fill-opacity="1" fill-rule="nonzero"/><path fill="#8c7bff" d="M 393.5625 439.75 L 344.269531 436.988281 L 312.625 442.257812 L 306.160156 456.246094 L 254.953125 584.84375 L 306.226562 584.84375 L 338.71875 515.5 C 353.285156 484.40625 380.871094 454.550781 380.871094 454.550781 L 368.28125 584.84375 L 419.554688 584.84375 L 430.746094 516.289062 C 435.195312 485.777344 435.964844 475.125 427.277344 459.03125 C 420.917969 447.261719 406.933594 440.496094 393.5625 439.75 " fill-opacity="1" fill-rule="nonzero"/><path fill="#000000" d="M 419.554688 585.433594 L 368.28125 585.433594 C 368.109375 585.433594 367.953125 585.363281 367.839844 585.238281 C 367.726562 585.117188 367.675781 584.949219 367.691406 584.785156 L 377.34375 492.726562 C 377.382812 492.40625 377.652344 492.167969 377.992188 492.203125 C 378.316406 492.234375 378.554688 492.527344 378.519531 492.851562 L 368.9375 584.257812 L 419.054688 584.257812 L 430.164062 516.191406 C 436.265625 474.339844 432.578125 457.871094 414.386719 445.726562 C 400.613281 436.535156 363.125 426.828125 362.746094 426.730469 C 362.433594 426.652344 362.242188 426.332031 362.324219 426.015625 C 362.402344 425.699219 362.730469 425.507812 363.042969 425.589844 C 363.421875 425.6875 401.101562 435.441406 415.042969 444.75 C 424.828125 451.277344 430.25 459.109375 432.617188 470.132812 C 434.890625 480.738281 434.507812 494.566406 431.328125 516.371094 L 420.136719 584.9375 C 420.09375 585.226562 419.84375 585.433594 419.554688 585.433594 " fill-opacity="1" fill-rule="nonzero"/><path fill="#955b50" d="M 393 279.648438 L 386.394531 296.613281 L 384.847656 286.621094 L 386.441406 282.289062 C 387.335938 279.867188 390.011719 278.605469 392.453125 279.457031 L 393 279.648438 " fill-opacity="1" fill-rule="nonzero"/><path fill="#955b50" d="M 418.511719 292.6875 L 415.933594 312.078125 L 392.210938 319 L 385.253906 300.933594 C 383.386719 296.074219 383.34375 290.703125 385.144531 285.816406 L 386.246094 282.828125 L 418.511719 292.6875 " fill-opacity="1" fill-rule="nonzero"/><path fill="#955b50" d="M 407.144531 260.449219 L 394.046875 296.167969 L 387.507812 293.769531 L 400.597656 258.046875 C 401.234375 256.316406 403.160156 255.429688 404.890625 256.066406 L 405.160156 256.164062 C 406.890625 256.796875 407.78125 258.71875 407.144531 260.449219 " fill-opacity="1" fill-rule="nonzero"/><path fill="#955b50" d="M 408.964844 275.832031 L 401.304688 296.636719 L 394.242188 293.785156 L 402.425781 273.429688 C 403.0625 271.6875 404.996094 270.796875 406.738281 271.4375 L 406.96875 271.523438 C 408.714844 272.160156 409.609375 274.09375 408.964844 275.832031 " fill-opacity="1" fill-rule="nonzero"/><path fill="#955b50" d="M 422.042969 280.660156 L 414.507812 301.132812 L 407.960938 298.730469 L 415.5 278.257812 C 416.148438 276.5 418.097656 275.601562 419.855469 276.246094 L 420.03125 276.308594 C 421.792969 276.953125 422.695312 278.902344 422.042969 280.660156 " fill-opacity="1" fill-rule="nonzero"/><path fill="#955b50" d="M 422.039062 295.734375 L 416.003906 311.929688 L 409.433594 309.519531 L 419.609375 282.074219 L 421.980469 288.214844 C 422.917969 290.632812 422.9375 293.304688 422.039062 295.734375 " fill-opacity="1" fill-rule="nonzero"/><path fill="#955b50" d="M 412.671875 275.300781 L 413.027344 275.429688 C 414.734375 276.0625 415.523438 278.191406 414.789062 280.195312 L 408.050781 300.511719 L 400.554688 297.527344 L 408.242188 277.792969 C 408.984375 275.789062 410.964844 274.675781 412.671875 275.300781 " fill-opacity="1" fill-rule="nonzero"/><path fill="#955b50" d="M 416.230469 310.371094 L 415.527344 339.6875 L 390.214844 331.617188 L 390.796875 301.042969 L 416.230469 310.371094 " fill-opacity="1" fill-rule="nonzero"/><path fill="#000000" d="M 415.992188 320.363281 L 415.527344 339.6875 L 390.214844 331.617188 L 390.375 323.15625 L 406.089844 321.441406 L 415.992188 320.363281 " fill-opacity="1" fill-rule="nonzero"/><path fill="#000000" d="M 406.382812 283.4375 C 406.316406 283.4375 406.246094 283.425781 406.179688 283.402344 C 405.875 283.289062 405.71875 282.949219 405.828125 282.644531 L 408.414062 275.625 C 408.671875 274.929688 408.640625 274.179688 408.332031 273.507812 C 408.019531 272.839844 407.464844 272.328125 406.765625 272.070312 L 406.539062 271.988281 C 405.109375 271.460938 403.507812 272.195312 402.980469 273.628906 L 400.042969 281.605469 C 399.933594 281.910156 399.589844 282.066406 399.285156 281.953125 C 398.980469 281.839844 398.824219 281.503906 398.9375 281.199219 L 401.871094 273.222656 C 402.625 271.179688 404.902344 270.128906 406.945312 270.878906 L 407.175781 270.960938 C 408.167969 271.328125 408.957031 272.054688 409.402344 273.015625 C 409.84375 273.972656 409.886719 275.042969 409.523438 276.03125 L 406.9375 283.050781 C 406.847656 283.289062 406.621094 283.4375 406.382812 283.4375 " fill-opacity="1" fill-rule="nonzero"/><path fill="#000000" d="M 412.546875 286.871094 C 412.480469 286.871094 412.410156 286.855469 412.34375 286.832031 C 412.039062 286.71875 411.882812 286.382812 411.992188 286.074219 L 414.433594 279.449219 C 414.683594 278.773438 414.65625 278.039062 414.351562 277.386719 C 414.050781 276.730469 413.511719 276.230469 412.828125 275.984375 L 412.472656 275.851562 C 411.070312 275.335938 409.515625 276.058594 408.996094 277.457031 L 406.644531 283.851562 C 406.53125 284.15625 406.195312 284.3125 405.886719 284.199219 C 405.578125 284.089844 405.425781 283.75 405.535156 283.441406 L 407.890625 277.046875 C 408.632812 275.039062 410.871094 274.007812 412.878906 274.746094 L 413.234375 274.875 C 414.210938 275.234375 414.988281 275.949219 415.421875 276.890625 C 415.855469 277.828125 415.902344 278.882812 415.542969 279.855469 L 413.101562 286.480469 C 413.011719 286.71875 412.789062 286.871094 412.546875 286.871094 " fill-opacity="1" fill-rule="nonzero"/><path fill="#000000" d="M 388.179688 292.53125 C 388.109375 292.53125 388.042969 292.523438 387.976562 292.496094 C 387.667969 292.386719 387.515625 292.046875 387.625 291.738281 L 400.050781 257.84375 C 400.796875 255.808594 403.058594 254.761719 405.097656 255.511719 L 405.363281 255.605469 C 406.351562 255.972656 407.136719 256.695312 407.578125 257.644531 C 408.019531 258.597656 408.0625 259.664062 407.699219 260.648438 L 399.519531 283.019531 C 399.410156 283.324219 399.070312 283.484375 398.765625 283.371094 C 398.460938 283.257812 398.300781 282.921875 398.414062 282.613281 L 406.589844 260.242188 C 406.847656 259.554688 406.816406 258.808594 406.507812 258.140625 C 406.199219 257.476562 405.648438 256.96875 404.957031 256.714844 L 404.691406 256.617188 C 403.269531 256.09375 401.679688 256.828125 401.152344 258.25 L 388.734375 292.144531 C 388.648438 292.386719 388.417969 292.53125 388.179688 292.53125 " fill-opacity="1" fill-rule="nonzero"/><path fill="#000000" d="M 415.527344 340.277344 C 415.464844 340.277344 415.410156 340.265625 415.347656 340.246094 L 390.035156 332.179688 C 389.789062 332.101562 389.621094 331.867188 389.625 331.605469 L 389.945312 314.753906 L 384.707031 301.144531 C 382.972656 296.648438 382.769531 291.625 384.132812 287.003906 C 384.222656 286.691406 384.554688 286.511719 384.863281 286.605469 C 385.175781 286.695312 385.355469 287.023438 385.261719 287.335938 C 383.972656 291.710938 384.167969 296.464844 385.808594 300.722656 L 391.089844 314.441406 C 391.117188 314.511719 391.128906 314.585938 391.128906 314.664062 L 390.8125 331.1875 L 414.953125 338.886719 L 415.609375 311.515625 C 415.613281 311.449219 415.625 311.382812 415.648438 311.324219 L 421.488281 295.527344 C 422.332031 293.234375 422.316406 290.710938 421.433594 288.425781 L 420.082031 284.925781 C 420.03125 284.796875 420.027344 284.652344 420.074219 284.519531 L 421.488281 280.464844 C 421.75 279.753906 421.71875 278.996094 421.40625 278.316406 C 421.089844 277.636719 420.53125 277.121094 419.828125 276.863281 L 419.65625 276.800781 C 418.207031 276.269531 416.585938 277.011719 416.054688 278.460938 L 412.726562 287.503906 C 412.613281 287.808594 412.273438 287.964844 411.96875 287.851562 C 411.660156 287.742188 411.503906 287.402344 411.617188 287.097656 L 414.945312 278.054688 C 415.707031 275.996094 418 274.9375 420.0625 275.691406 L 420.234375 275.753906 C 421.230469 276.121094 422.03125 276.855469 422.476562 277.824219 C 422.921875 278.785156 422.964844 279.867188 422.597656 280.863281 L 421.257812 284.707031 L 422.53125 288.003906 C 423.515625 290.554688 423.539062 293.371094 422.59375 295.9375 L 416.789062 311.640625 L 416.117188 339.703125 C 416.109375 339.886719 416.019531 340.058594 415.867188 340.167969 C 415.769531 340.238281 415.648438 340.277344 415.527344 340.277344 " fill-opacity="1" fill-rule="nonzero"/><path fill="#fed101" d="M 403.152344 410.355469 C 391.183594 410.148438 381.652344 400.300781 381.859375 388.355469 L 382.738281 327.335938 L 426.257812 327.425781 L 425.191406 389.105469 C 424.984375 401.046875 415.117188 410.558594 403.152344 410.355469 " fill-opacity="1" fill-rule="nonzero"/><path fill="#000000" d="M 403.160156 409.765625 C 414.808594 409.945312 424.402344 400.691406 424.601562 389.09375 L 425.65625 328.011719 L 383.320312 327.929688 L 382.449219 388.363281 C 382.351562 393.984375 384.453125 399.304688 388.363281 403.34375 C 392.277344 407.390625 397.53125 409.667969 403.160156 409.765625 Z M 403.53125 410.949219 C 403.402344 410.949219 403.269531 410.945312 403.140625 410.941406 C 397.195312 410.839844 391.648438 408.433594 387.515625 404.167969 C 383.386719 399.898438 381.167969 394.28125 381.269531 388.347656 L 382.148438 327.328125 C 382.152344 327.007812 382.410156 326.757812 382.742188 326.75 L 426.257812 326.835938 C 426.414062 326.835938 426.566406 326.898438 426.675781 327.011719 C 426.789062 327.125 426.847656 327.277344 426.847656 327.433594 L 425.78125 389.113281 C 425.570312 401.230469 415.628906 410.949219 403.53125 410.949219 " fill-opacity="1" fill-rule="nonzero"/><path fill="#fed101" d="M 419.078125 373.671875 L 380.332031 334.988281 C 364.589844 319.273438 343.238281 310.445312 320.972656 310.445312 L 295.886719 310.445312 C 278.59375 310.445312 262.828125 320.324219 255.316406 335.871094 L 236.226562 375.390625 C 230.964844 386.316406 234.144531 402.386719 245.09375 407.636719 C 252.492188 411.1875 258.679688 410.917969 265.542969 407.628906 L 263.355469 432.183594 L 368.992188 427.773438 L 363.34375 383.699219 L 388.433594 404.257812 L 419.078125 373.671875 " fill-opacity="1" fill-rule="nonzero"/><path fill="#000000" d="M 388.433594 404.847656 C 388.300781 404.847656 388.171875 404.804688 388.0625 404.710938 L 341.769531 366.78125 C 341.515625 366.574219 341.480469 366.203125 341.683594 365.949219 C 341.890625 365.699219 342.261719 365.660156 342.515625 365.867188 L 388.808594 403.804688 C 389.058594 404.007812 389.097656 404.382812 388.890625 404.632812 C 388.773438 404.773438 388.605469 404.847656 388.433594 404.847656 " fill-opacity="1" fill-rule="nonzero"/><path fill="#000000" d="M 419.078125 374.265625 C 418.925781 374.265625 418.777344 374.207031 418.664062 374.089844 L 379.914062 335.40625 C 363.941406 319.460938 343.324219 311.03125 320.285156 311.03125 C 319.960938 311.03125 319.695312 310.769531 319.695312 310.445312 C 319.695312 310.117188 319.960938 309.851562 320.285156 309.851562 C 343.644531 309.851562 364.550781 318.398438 380.75 334.570312 L 419.496094 373.253906 C 419.726562 373.484375 419.726562 373.859375 419.5 374.089844 C 419.382812 374.207031 419.230469 374.265625 419.078125 374.265625 " fill-opacity="1" fill-rule="nonzero"/><path fill="#000000" d="M 263.335938 403.21875 C 263.304688 403.21875 263.273438 403.214844 263.242188 403.207031 C 262.921875 403.160156 262.699219 402.855469 262.753906 402.535156 L 272.289062 343.074219 C 272.34375 342.75 272.640625 342.527344 272.964844 342.582031 C 273.289062 342.632812 273.507812 342.9375 273.453125 343.257812 L 263.917969 402.722656 C 263.871094 403.011719 263.621094 403.21875 263.335938 403.21875 " fill-opacity="1" fill-rule="nonzero"/><path fill="#000000" d="M 271.566406 347.953125 L 257.65625 410.054688 C 257.65625 410.054688 259.765625 409.878906 261.980469 409.152344 C 263.550781 408.636719 265.542969 407.628906 265.542969 407.628906 L 271.566406 347.953125 " fill-opacity="1" fill-rule="nonzero"/><path fill="#955b50" d="M 328.707031 286.574219 C 328.707031 294.246094 329.203125 304.886719 321.515625 304.886719 C 313.832031 304.886719 300.875 294.246094 300.875 286.574219 C 300.875 278.902344 307.105469 272.683594 314.789062 272.683594 C 322.476562 272.683594 328.707031 278.902344 328.707031 286.574219 " fill-opacity="1" fill-rule="nonzero"/><path fill="#000000" d="M 333.816406 283.175781 C 331.691406 276.101562 325.125 270.945312 317.34375 270.945312 C 309.566406 270.945312 303.238281 275.6875 301.292969 283.175781 L 333.816406 283.175781 " fill-opacity="1" fill-rule="nonzero"/><path fill="#955b50" d="M 319.777344 310.445312 L 303.683594 310.445312 L 303.683594 286.574219 L 319.777344 286.574219 L 319.777344 310.445312 " fill-opacity="1" fill-rule="nonzero"/><path fill="#000000" d="M 319.777344 311.277344 C 319.453125 311.277344 319.1875 311.011719 319.1875 310.6875 L 319.1875 297.242188 C 319.1875 296.917969 319.453125 296.652344 319.777344 296.652344 C 320.105469 296.652344 320.367188 296.917969 320.367188 297.242188 L 320.367188 310.6875 C 320.367188 311.011719 320.105469 311.277344 319.777344 311.277344 " fill-opacity="1" fill-rule="nonzero"/><path fill="#fda4ff" d="M 306.039062 625.167969 L 317.074219 625.167969 L 317.074219 496.867188 L 306.039062 496.867188 L 306.039062 625.167969 " fill-opacity="1" fill-rule="nonzero"/><g clip-path="url(#cb4a6f63da)"><path fill="#fda4ff" d="M 363.269531 625.320312 L 314.441406 621.039062 L 309.964844 621.039062 L 260.113281 625.320312 L 260.113281 628.714844 L 363.269531 628.714844 L 363.269531 625.320312 " fill-opacity="1" fill-rule="nonzero"/></g><path fill="#ffffff" d="M 318.90625 363.066406 L 318.90625 397.472656 C 318.90625 423.769531 339.695312 445.085938 365.339844 445.085938 C 390.984375 445.085938 411.773438 466.402344 411.773438 492.699219 L 411.773438 496.941406 L 284.613281 496.941406 C 246.167969 496.941406 215 464.984375 215 425.5625 L 215 363.066406 L 318.90625 363.066406 " fill-opacity="1" fill-rule="nonzero"/><path fill="#000000" d="M 215.589844 363.652344 L 215.589844 425.5625 C 215.589844 464.597656 246.554688 496.355469 284.613281 496.355469 L 411.1875 496.355469 L 411.1875 492.699219 C 411.1875 466.769531 390.621094 445.675781 365.339844 445.675781 C 339.410156 445.675781 318.316406 424.050781 318.316406 397.472656 L 318.316406 363.652344 Z M 411.773438 497.53125 L 284.613281 497.53125 C 245.902344 497.53125 214.410156 465.246094 214.410156 425.5625 L 214.410156 363.066406 C 214.410156 362.738281 214.675781 362.472656 215 362.472656 L 318.90625 362.472656 C 319.230469 362.472656 319.496094 362.738281 319.496094 363.066406 L 319.496094 397.472656 C 319.496094 423.402344 340.058594 444.496094 365.339844 444.496094 C 391.269531 444.496094 412.367188 466.121094 412.367188 492.699219 L 412.367188 496.941406 C 412.367188 497.269531 412.101562 497.53125 411.773438 497.53125 " fill-opacity="1" fill-rule="nonzero"/><path fill="#000000" d="M 296.777344 249.8125 L 245.15625 249.8125 L 245.15625 226.636719 L 296.777344 226.636719 L 296.777344 249.8125 " fill-opacity="1" fill-rule="nonzero"/><path fill="#000000" d="M 369.1875 249.8125 L 317.566406 249.8125 L 317.566406 226.636719 L 369.1875 226.636719 L 369.1875 249.8125 " fill-opacity="1" fill-rule="nonzero"/><path fill="#000000" d="M 226.128906 249.8125 L 174.511719 249.8125 L 174.511719 226.636719 L 226.128906 226.636719 L 226.128906 249.8125 " fill-opacity="1" fill-rule="nonzero"/><path fill="#000000" d="M 296.777344 207.449219 L 245.15625 207.449219 L 245.15625 184.273438 L 296.777344 184.273438 L 296.777344 207.449219 " fill-opacity="1" fill-rule="nonzero"/><path fill="#000000" d="M 369.1875 207.449219 L 317.570312 207.449219 L 317.570312 184.273438 L 369.1875 184.273438 L 369.1875 207.449219 " fill-opacity="1" fill-rule="nonzero"/><path fill="#000000" d="M 226.128906 207.449219 L 174.511719 207.449219 L 174.511719 184.273438 L 226.128906 184.273438 L 226.128906 207.449219 " fill-opacity="1" fill-rule="nonzero"/><path fill="#000000" d="M 296.777344 164.972656 L 245.15625 164.972656 L 245.15625 141.796875 L 296.777344 141.796875 L 296.777344 164.972656 " fill-opacity="1" fill-rule="nonzero"/><path fill="#000000" d="M 269.511719 227.53125 C 269.183594 227.53125 268.921875 227.265625 268.921875 226.9375 L 268.921875 205.105469 C 268.921875 204.78125 269.183594 204.515625 269.511719 204.515625 C 269.835938 204.515625 270.101562 204.78125 270.101562 205.105469 L 270.101562 226.9375 C 270.101562 227.265625 269.835938 227.53125 269.511719 227.53125 " fill-opacity="1" fill-rule="nonzero"/><path fill="#000000" d="M 341.917969 225.25 C 341.59375 225.25 341.328125 224.988281 341.328125 224.660156 L 341.328125 217.652344 L 198.40625 217.652344 L 198.40625 224.660156 C 198.40625 224.988281 198.144531 225.25 197.816406 225.25 C 197.492188 225.25 197.226562 224.988281 197.226562 224.660156 L 197.226562 217.0625 C 197.226562 216.738281 197.492188 216.472656 197.816406 216.472656 L 341.917969 216.472656 C 342.246094 216.472656 342.507812 216.738281 342.507812 217.0625 L 342.507812 224.660156 C 342.507812 224.988281 342.246094 225.25 341.917969 225.25 " fill-opacity="1" fill-rule="nonzero"/><path fill="#fed101" d="M 295.320312 247.835938 L 243.699219 247.835938 L 243.699219 224.660156 L 295.320312 224.660156 L 295.320312 247.835938 " fill-opacity="1" fill-rule="nonzero"/><path fill="#fed101" d="M 367.730469 247.835938 L 316.109375 247.835938 L 316.109375 224.660156 L 367.730469 224.660156 L 367.730469 247.835938 " fill-opacity="1" fill-rule="nonzero"/><path fill="#fed101" d="M 224.671875 247.835938 L 173.054688 247.835938 L 173.054688 224.660156 L 224.671875 224.660156 L 224.671875 247.835938 " fill-opacity="1" fill-rule="nonzero"/><path fill="#000000" d="M 269.507812 185.171875 C 269.183594 185.171875 268.917969 184.90625 268.917969 184.582031 L 268.917969 162.746094 C 268.917969 162.421875 269.183594 162.160156 269.507812 162.160156 C 269.835938 162.160156 270.097656 162.421875 270.097656 162.746094 L 270.097656 184.582031 C 270.097656 184.90625 269.835938 185.171875 269.507812 185.171875 " fill-opacity="1" fill-rule="nonzero"/><path fill="#000000" d="M 341.921875 182.886719 C 341.59375 182.886719 341.332031 182.625 341.332031 182.296875 L 341.332031 175.289062 L 198.40625 175.289062 L 198.40625 182.296875 C 198.40625 182.625 198.144531 182.886719 197.816406 182.886719 C 197.492188 182.886719 197.226562 182.625 197.226562 182.296875 L 197.226562 174.703125 C 197.226562 174.375 197.492188 174.109375 197.816406 174.109375 L 341.921875 174.109375 C 342.246094 174.109375 342.511719 174.375 342.511719 174.703125 L 342.511719 182.296875 C 342.511719 182.625 342.246094 182.886719 341.921875 182.886719 " fill-opacity="1" fill-rule="nonzero"/><path fill="#fed101" d="M 295.320312 205.472656 L 243.703125 205.472656 L 243.703125 182.296875 L 295.320312 182.296875 L 295.320312 205.472656 " fill-opacity="1" fill-rule="nonzero"/><path fill="#fed101" d="M 367.730469 205.472656 L 316.109375 205.472656 L 316.109375 182.296875 L 367.730469 182.296875 L 367.730469 205.472656 " fill-opacity="1" fill-rule="nonzero"/><path fill="#fed101" d="M 224.671875 205.472656 L 173.054688 205.472656 L 173.054688 182.296875 L 224.671875 182.296875 L 224.671875 205.472656 " fill-opacity="1" fill-rule="nonzero"/><path fill="#fed101" d="M 295.320312 162.996094 L 243.703125 162.996094 L 243.703125 139.820312 L 295.320312 139.820312 L 295.320312 162.996094 " fill-opacity="1" fill-rule="nonzero"/><path fill="#ffffff" d="M 362.59375 248.554688 C 362.269531 248.554688 362.007812 248.289062 362.007812 247.964844 L 362.007812 224.691406 C 362.007812 224.367188 362.269531 224.101562 362.59375 224.101562 C 362.921875 224.101562 363.183594 224.367188 363.183594 224.691406 L 363.183594 247.964844 C 363.183594 248.289062 362.921875 248.554688 362.59375 248.554688 " fill-opacity="1" fill-rule="nonzero"/><path fill="#ffffff" d="M 592.398438 240.378906 L 661.953125 240.378906 L 661.953125 139.59375 L 592.398438 139.59375 L 592.398438 240.378906 " fill-opacity="1" fill-rule="nonzero"/><path fill="#fda4ff" d="M 517.652344 153.65625 L 661.953125 153.65625 L 661.953125 139.59375 L 517.652344 139.59375 L 517.652344 153.65625 " fill-opacity="1" fill-rule="nonzero"/><path fill="#ffffff" d="M 522.027344 146.570312 C 522.027344 148.289062 523.425781 149.679688 525.152344 149.679688 C 526.886719 149.679688 528.285156 148.289062 528.285156 146.570312 C 528.285156 144.855469 526.886719 143.464844 525.152344 143.464844 C 523.425781 143.464844 522.027344 144.855469 522.027344 146.570312 " fill-opacity="1" fill-rule="nonzero"/><path fill="#ffffff" d="M 532.316406 146.570312 C 532.316406 148.289062 533.71875 149.679688 535.445312 149.679688 C 537.175781 149.679688 538.574219 148.289062 538.574219 146.570312 C 538.574219 144.855469 537.175781 143.464844 535.445312 143.464844 C 533.71875 143.464844 532.316406 144.855469 532.316406 146.570312 " fill-opacity="1" fill-rule="nonzero"/><path fill="#ffffff" d="M 542.609375 146.570312 C 542.609375 148.289062 544.007812 149.679688 545.734375 149.679688 C 547.464844 149.679688 548.867188 148.289062 548.867188 146.570312 C 548.867188 144.855469 547.464844 143.464844 545.734375 143.464844 C 544.007812 143.464844 542.609375 144.855469 542.609375 146.570312 " fill-opacity="1" fill-rule="nonzero"/><g clip-path="url(#c555a82e77)"><path fill="#000000" d="M 518.238281 239.785156 L 661.363281 239.785156 L 661.363281 140.179688 L 518.238281 140.179688 Z M 661.949219 240.96875 L 517.648438 240.96875 C 517.320312 240.96875 517.058594 240.703125 517.058594 240.375 L 517.058594 139.589844 C 517.058594 139.261719 517.320312 139 517.648438 139 L 661.949219 139 C 662.277344 139 662.539062 139.261719 662.539062 139.589844 L 662.539062 240.375 C 662.539062 240.703125 662.277344 240.96875 661.949219 240.96875 " fill-opacity="1" fill-rule="nonzero"/></g><path fill="#8c7bff" d="M 652.945312 202.519531 L 610.457031 202.519531 L 610.457031 160.371094 L 652.945312 160.371094 L 652.945312 202.519531 " fill-opacity="1" fill-rule="nonzero"/><path fill="#ffffff" d="M 649.792969 199.382812 L 613.621094 199.382812 L 622.988281 188.101562 L 628.226562 193.203125 L 637.5625 180.289062 L 649.792969 199.382812 " fill-opacity="1" fill-rule="nonzero"/><path fill="#ffffff" d="M 628.289062 175.953125 C 628.289062 178.15625 626.492188 179.9375 624.269531 179.9375 C 622.050781 179.9375 620.25 178.15625 620.25 175.953125 C 620.25 173.75 622.050781 171.96875 624.269531 171.96875 C 626.492188 171.96875 628.289062 173.75 628.289062 175.953125 " fill-opacity="1" fill-rule="nonzero"/><path fill="#fda4ff" d="M 536.816406 206.589844 L 525.539062 206.589844 L 525.539062 203.503906 L 536.816406 203.503906 L 536.816406 206.589844 " fill-opacity="1" fill-rule="nonzero"/><path fill="#fda4ff" d="M 567.671875 206.589844 L 541.238281 206.589844 L 541.238281 203.503906 L 567.671875 203.503906 L 567.671875 206.589844 " fill-opacity="1" fill-rule="nonzero"/><path fill="#fda4ff" d="M 560.53125 184.820312 L 536.898438 184.820312 L 536.898438 181.734375 L 560.53125 181.734375 L 560.53125 184.820312 " fill-opacity="1" fill-rule="nonzero"/><path fill="#fda4ff" d="M 579.558594 184.820312 L 564.507812 184.820312 L 564.507812 181.734375 L 579.558594 181.734375 L 579.558594 184.820312 " fill-opacity="1" fill-rule="nonzero"/><path fill="#fda4ff" d="M 583.804688 227.96875 L 536.996094 227.96875 L 536.996094 224.882812 L 583.804688 224.882812 L 583.804688 227.96875 " fill-opacity="1" fill-rule="nonzero"/><path fill="#fda4ff" d="M 604.710938 227.96875 L 589.660156 227.96875 L 589.660156 224.886719 L 604.710938 224.886719 L 604.710938 227.96875 " fill-opacity="1" fill-rule="nonzero"/><path fill="#fda4ff" d="M 546.871094 196.578125 L 525.78125 196.578125 L 525.78125 193.496094 L 546.871094 193.496094 L 546.871094 196.578125 " fill-opacity="1" fill-rule="nonzero"/><path fill="#fda4ff" d="M 598.601562 196.558594 L 553.140625 196.558594 L 553.140625 193.472656 L 598.601562 193.472656 L 598.601562 196.558594 " fill-opacity="1" fill-rule="nonzero"/><path fill="#fda4ff" d="M 624.355469 217.671875 L 613.953125 217.671875 L 613.953125 214.589844 L 624.355469 214.589844 L 624.355469 217.671875 " fill-opacity="1" fill-rule="nonzero"/><path fill="#fda4ff" d="M 554.703125 217.621094 L 536.898438 217.621094 L 536.898438 214.535156 L 554.703125 214.535156 L 554.703125 217.621094 " fill-opacity="1" fill-rule="nonzero"/><path fill="#fda4ff" d="M 610.878906 217.667969 L 560.53125 217.667969 L 560.53125 214.585938 L 610.878906 214.585938 L 610.878906 217.667969 " fill-opacity="1" fill-rule="nonzero"/><path fill="#000000" d="M 539.476562 169.734375 L 534.425781 171.710938 L 539.476562 173.683594 L 539.476562 174.53125 L 533.5 172.160156 L 533.5 171.261719 L 539.476562 168.878906 L 539.476562 169.734375 " fill-opacity="1" fill-rule="nonzero"/><path fill="#000000" d="M 544.625 165.015625 L 545.511719 165.015625 L 540.988281 177.839844 L 540.089844 177.839844 L 544.625 165.015625 " fill-opacity="1" fill-rule="nonzero"/><path fill="#000000" d="M 551.96875 171.261719 L 551.96875 172.160156 L 546 174.53125 L 546 173.683594 L 551.054688 171.710938 L 546 169.734375 L 546 168.878906 L 551.96875 171.261719 " fill-opacity="1" fill-rule="nonzero"/></svg>