<?xml version="1.0" encoding="UTF-8"?>
<svg id="Layer_2" data-name="Layer 2" xmlns="http://www.w3.org/2000/svg" viewBox="0 0 282.16 282.16">
  <defs>
    <style>
      .cls-1 {
        fill: #407bff;
      }

      .cls-1, .cls-2 {
        stroke-width: 0px;
      }

      .cls-2 {
        fill: #fff;
      }
    </style>
  </defs>
  <g id="Layer_1-2" data-name="Layer 1">
    <g>
      <rect class="cls-1" width="282.16" height="282.16" rx="51.22" ry="51.22"/>
      <g>
        <path class="cls-2" d="m141.08,47.5s37.94,33.08,0,71.51c-37.94-38.43,0-71.51,0-71.51Z"/>
        <path class="cls-2" d="m141.08,251.2s-37.94-33.08,0-71.51c37.94,38.43,0,71.51,0,71.51Z"/>
      </g>
      <path class="cls-2" d="m80.42,94.2s50.21-3.44,50.56,50.57c-54-.34-50.56-50.57-50.56-50.57Z"/>
      <path class="cls-2" d="m80.42,205.43s50.21,3.44,50.56-50.57c-54,.34-50.56,50.57-50.56,50.57Z"/>
      <path class="cls-2" d="m28.24,149.34s33.08-37.94,71.51,0c-38.43,37.94-71.51,0-71.51,0Z"/>
      <path class="cls-2" d="m201.74,205.4s-50.21,3.44-50.56-50.57c54,.34,50.56,50.57,50.56,50.57Z"/>
      <path class="cls-2" d="m201.74,94.17s-50.21-3.44-50.56,50.57c54-.34,50.56-50.57,50.56-50.57Z"/>
      <path class="cls-2" d="m253.91,150.26s-33.08,37.94-71.51,0c38.43-37.94,71.51,0,71.51,0Z"/>
    </g>
  </g>
</svg>